<svg width="139" height="178" viewBox="0 0 139 178" fill="none" xmlns="http://www.w3.org/2000/svg">
<path d="M53.7642 21.3281C53.7642 12.9191 60.5895 6.09375 68.9985 6.09375C77.4084 6.09375 84.2329 12.9191 84.2329 21.3281V30.6719H90.3266V21.3281C90.3266 9.5675 80.7599 0 68.9985 0C57.2379 0 47.6704 9.5675 47.6704 21.3281V30.6719H53.7642V21.3281Z" fill="white"/>
<path fill-rule="evenodd" clip-rule="evenodd" d="M26.3422 104C25.4281 104 24.5752 103.573 24.0269 102.903C23.4175 102.233 23.1731 101.319 23.3564 100.405L35.5439 33.1705C35.7875 31.7073 37.0674 30.6719 38.5297 30.6719H47.6703V42.8594H44.6234C42.9167 42.8594 41.5766 44.1995 41.5766 45.9062C41.5766 47.6122 42.9167 48.9531 44.6234 48.9531H56.8109C58.5177 48.9531 59.8578 47.6122 59.8578 45.9062C59.8578 44.1995 58.5177 42.8594 56.8109 42.8594H53.7641V30.6719H84.2328V42.8594H81.1859C79.4792 42.8594 78.1391 44.1995 78.1391 45.9062C78.1391 47.6122 79.4792 48.9531 81.1859 48.9531H93.3734C95.0802 48.9531 96.4203 47.6122 96.4203 45.9062C96.4203 44.1995 95.0802 42.8594 93.3734 42.8594H90.3266V30.6719H99.4672C100.93 30.6719 102.209 31.7073 102.453 33.1705L114.64 100.405C114.824 101.319 114.579 102.233 113.971 102.903C113.422 103.573 112.569 104 111.655 104H26.3422Z" fill="white"/>
<path d="M69.5999 87.5C68.1332 87.5 66.6666 87.3167 65.1999 86.95C63.7666 86.5833 62.4666 85.95 61.2999 85.05C60.1666 84.15 59.2332 82.95 58.4999 81.45C57.7666 79.95 57.3999 78.0667 57.3999 75.8C57.3999 74.9667 57.4666 73.9667 57.5999 72.8C57.7332 71.6333 57.9832 70.4333 58.3499 69.2C58.7499 67.9667 59.2832 66.75 59.9499 65.55C60.6499 64.3167 61.5499 63.2167 62.6499 62.25C63.7499 61.2833 65.0832 60.5 66.6499 59.9C68.2166 59.3 70.0832 59 72.2499 59C73.9832 59 75.4499 59.2 76.6499 59.6C77.8499 60 78.8166 60.55 79.5499 61.25C80.2832 61.9167 80.8166 62.7 81.1499 63.6C81.4832 64.5 81.6499 65.4667 81.6499 66.5C81.6499 68.0333 81.3332 69.3333 80.6999 70.4C80.0999 71.4667 79.2999 72.3667 78.2999 73.1C77.3332 73.8 76.2499 74.35 75.0499 74.75C73.8499 75.15 72.6666 75.4667 71.4999 75.7C70.3332 75.9 69.2499 76.0333 68.2499 76.1C67.2832 76.1333 66.5332 76.15 65.9999 76.15C65.9999 76.7833 66.0832 77.4167 66.2499 78.05C66.4499 78.65 66.7332 79.1833 67.0999 79.65C67.4666 80.1167 67.9499 80.5 68.5499 80.8C69.1499 81.1 69.8832 81.25 70.7499 81.25C71.6166 81.25 72.2832 81.1167 72.7499 80.85C73.2499 80.55 73.6499 80.2333 73.9499 79.9C74.2499 79.5333 74.4999 79.2167 74.6999 78.95C74.9332 78.65 75.2332 78.5 75.5999 78.5C75.7666 78.5 76.0499 78.55 76.4499 78.65C76.8832 78.7167 77.3166 78.8833 77.7499 79.15C78.1832 79.4167 78.5666 79.7833 78.8999 80.25C79.2332 80.7167 79.3999 81.3167 79.3999 82.05C79.3999 83.0167 79.0999 83.85 78.4999 84.55C77.8999 85.25 77.1166 85.8167 76.1499 86.25C75.2166 86.6833 74.1666 87 72.9999 87.2C71.8332 87.4 70.6999 87.5 69.5999 87.5ZM70.5499 65.65C69.8166 65.65 69.1832 65.8667 68.6499 66.3C68.1499 66.7 67.7166 67.2167 67.3499 67.85C67.0166 68.4833 66.7499 69.1833 66.5499 69.95C66.3832 70.7167 66.2499 71.45 66.1499 72.15C68.2166 72.1167 69.8832 71.7667 71.1499 71.1C72.4499 70.4333 73.0999 69.4833 73.0999 68.25C73.0999 67.5833 72.8832 66.9833 72.4499 66.45C72.0499 65.9167 71.4166 65.65 70.5499 65.65Z" fill="#364FD4"/>
<path d="M17.5841 177.72C15.4721 177.72 13.3601 177.456 11.2481 176.928C9.18411 176.4 7.31211 175.488 5.63211 174.192C4.00011 172.896 2.65611 171.168 1.60011 169.008C0.544113 166.848 0.0161133 164.136 0.0161133 160.872C0.0161133 159.672 0.112113 158.232 0.304113 156.552C0.496113 154.872 0.856113 153.144 1.38411 151.368C1.96011 149.592 2.72811 147.84 3.68811 146.112C4.69611 144.336 5.99211 142.752 7.57611 141.36C9.16011 139.968 11.0801 138.84 13.3361 137.976C15.5921 137.112 18.2801 136.68 21.4001 136.68C23.8961 136.68 26.0081 136.968 27.7361 137.544C29.4641 138.12 30.8561 138.912 31.9121 139.92C32.9681 140.88 33.7361 142.008 34.2161 143.304C34.6961 144.6 34.9361 145.992 34.9361 147.48C34.9361 149.688 34.4801 151.56 33.5681 153.096C32.7041 154.632 31.5521 155.928 30.1121 156.984C28.7201 157.992 27.1601 158.784 25.4321 159.36C23.7041 159.936 22.0001 160.392 20.3201 160.728C18.6401 161.016 17.0801 161.208 15.6401 161.304C14.2481 161.352 13.1681 161.376 12.4001 161.376C12.4001 162.288 12.5201 163.2 12.7601 164.112C13.0481 164.976 13.4561 165.744 13.9841 166.416C14.5121 167.088 15.2081 167.64 16.0721 168.072C16.9361 168.504 17.9921 168.72 19.2401 168.72C20.4881 168.72 21.4481 168.528 22.1201 168.144C22.8401 167.712 23.4161 167.256 23.8481 166.776C24.2801 166.248 24.6401 165.792 24.9281 165.408C25.2641 164.976 25.6961 164.76 26.2241 164.76C26.4641 164.76 26.8721 164.832 27.4481 164.976C28.0721 165.072 28.6961 165.312 29.3201 165.696C29.9441 166.08 30.4961 166.608 30.9761 167.28C31.4561 167.952 31.6961 168.816 31.6961 169.872C31.6961 171.264 31.2641 172.464 30.4001 173.472C29.5361 174.48 28.4081 175.296 27.0161 175.92C25.6721 176.544 24.1601 177 22.4801 177.288C20.8001 177.576 19.1681 177.72 17.5841 177.72ZM18.9521 146.256C17.8961 146.256 16.9841 146.568 16.2161 147.192C15.4961 147.768 14.8721 148.512 14.3441 149.424C13.8641 150.336 13.4801 151.344 13.1921 152.448C12.9521 153.552 12.7601 154.608 12.6161 155.616C15.5921 155.568 17.9921 155.064 19.8161 154.104C21.6881 153.144 22.6241 151.776 22.6241 150C22.6241 149.04 22.3121 148.176 21.6881 147.408C21.1121 146.64 20.2001 146.256 18.9521 146.256Z" fill="white"/>
<path d="M42.1241 161.476C41.8601 161.476 41.7281 161.344 41.7281 161.08L41.8361 159.136C41.8601 158.824 41.8961 158.524 41.9441 158.236C42.0161 157.924 42.1361 157.648 42.3041 157.408C42.4961 157.168 42.7601 156.976 43.0961 156.832C43.4321 156.688 43.8761 156.616 44.4281 156.616H54.2201C54.3641 156.616 54.4961 156.664 54.6161 156.76C54.7361 156.832 54.7961 156.952 54.7961 157.12L54.6521 159.064C54.6041 159.784 54.4001 160.372 54.0401 160.828C53.7041 161.26 52.9961 161.476 51.9161 161.476H42.1241Z" fill="white"/>
<path d="M66.593 148.84C68.633 148.84 70.133 149.248 71.093 150.064C72.053 150.856 72.533 151.876 72.533 153.124C72.533 154.18 72.197 154.984 71.525 155.536C70.877 156.088 69.929 156.364 68.681 156.364C68.345 156.364 68.117 156.328 67.997 156.256C67.877 156.184 67.817 156.052 67.817 155.86C67.817 155.644 67.793 155.404 67.745 155.14C67.721 154.852 67.637 154.588 67.493 154.348C67.373 154.084 67.169 153.868 66.881 153.7C66.617 153.532 66.233 153.448 65.729 153.448C65.057 153.448 64.517 153.616 64.109 153.952C63.701 154.264 63.497 154.66 63.497 155.14C63.497 155.644 63.701 156.052 64.109 156.364C64.541 156.652 65.069 156.928 65.693 157.192C66.341 157.456 67.037 157.732 67.781 158.02C68.525 158.284 69.209 158.644 69.833 159.1C70.481 159.556 71.009 160.132 71.417 160.828C71.849 161.5 72.065 162.376 72.065 163.456C72.065 165.184 71.453 166.6 70.229 167.704C69.005 168.808 67.169 169.36 64.721 169.36C64.049 169.36 63.269 169.3 62.381 169.18C61.517 169.084 60.689 168.928 59.897 168.712C59.105 168.472 58.433 168.16 57.881 167.776C57.353 167.392 57.089 166.912 57.089 166.336C57.089 166.12 57.125 165.856 57.197 165.544C57.293 165.232 57.425 164.932 57.593 164.644C57.785 164.356 58.001 164.116 58.241 163.924C58.505 163.708 58.817 163.6 59.177 163.6C59.465 163.6 59.729 163.672 59.969 163.816C60.209 163.96 60.485 164.116 60.797 164.284C61.133 164.428 61.541 164.572 62.021 164.716C62.501 164.86 63.137 164.932 63.929 164.932C64.529 164.932 65.057 164.86 65.513 164.716C65.993 164.572 66.233 164.248 66.233 163.744C66.233 163.288 66.041 162.928 65.657 162.664C65.273 162.376 64.781 162.112 64.181 161.872C63.605 161.632 62.969 161.38 62.273 161.116C61.601 160.828 60.965 160.456 60.365 160C59.789 159.544 59.309 158.968 58.925 158.272C58.541 157.552 58.349 156.628 58.349 155.5C58.349 154.276 58.589 153.244 59.069 152.404C59.573 151.54 60.209 150.844 60.977 150.316C61.769 149.788 62.657 149.416 63.641 149.2C64.625 148.96 65.609 148.84 66.593 148.84Z" fill="white"/>
<path d="M87.1672 164.536C87.2392 163.744 87.3112 162.916 87.3832 162.052C87.4792 161.188 87.5512 160.36 87.5992 159.568C87.6712 158.776 87.7312 158.068 87.7792 157.444C87.8272 156.82 87.8512 156.364 87.8512 156.076C87.8512 155.452 87.6952 154.9 87.3832 154.42C87.0952 153.916 86.5192 153.664 85.6552 153.664C84.5032 153.664 83.5672 154.204 82.8472 155.284C82.1512 156.364 81.7432 157.804 81.6232 159.604C81.5752 160.108 81.5152 160.816 81.4432 161.728C81.3712 162.616 81.2992 163.528 81.2272 164.464C81.1552 165.376 81.0832 166.204 81.0112 166.948C80.9632 167.668 80.9392 168.112 80.9392 168.28C80.9392 168.568 80.8792 168.76 80.7592 168.856C80.6632 168.952 80.4592 169 80.1472 169H78.8512C78.1072 169 77.4952 168.928 77.0152 168.784C76.5592 168.616 76.1872 168.388 75.8992 168.1C75.6352 167.812 75.4432 167.464 75.3232 167.056C75.2272 166.624 75.1792 166.132 75.1792 165.58C75.1792 165.052 75.2152 164.32 75.2872 163.384C75.3832 162.424 75.5032 161.116 75.6472 159.46C75.7912 157.78 75.9592 155.644 76.1512 153.052C76.3432 150.46 76.5472 147.244 76.7632 143.404C76.7872 142.876 76.8472 142.564 76.9432 142.468C77.0152 142.396 77.2072 142.36 77.5192 142.36H78.9232C79.6432 142.36 80.2432 142.444 80.7232 142.612C81.2032 142.78 81.5872 143.008 81.8752 143.296C82.1632 143.584 82.3672 143.92 82.4872 144.304C82.6072 144.664 82.6672 145.048 82.6672 145.456C82.6672 145.888 82.6192 146.692 82.5232 147.868C82.4512 149.044 82.3552 150.424 82.2352 152.008C82.9552 150.808 83.7472 149.98 84.6112 149.524C85.4992 149.068 86.6152 148.84 87.9592 148.84C88.9672 148.84 89.8432 148.948 90.5872 149.164C91.3312 149.38 91.9432 149.752 92.4232 150.28C92.9272 150.784 93.2992 151.456 93.5392 152.296C93.7792 153.112 93.8992 154.132 93.8992 155.356C93.8992 155.74 93.8632 156.4 93.7912 157.336C93.7192 158.272 93.6232 159.34 93.5032 160.54C93.4072 161.74 93.2992 163 93.1792 164.32C93.0832 165.616 92.9992 166.804 92.9272 167.884C92.9032 168.148 92.8792 168.352 92.8552 168.496C92.8312 168.64 92.7832 168.748 92.7112 168.82C92.6632 168.892 92.5792 168.94 92.4592 168.964C92.3392 168.988 92.1712 169 91.9552 169H90.8032C90.0352 169 89.4112 168.928 88.9312 168.784C88.4512 168.64 88.0792 168.436 87.8152 168.172C87.5512 167.908 87.3592 167.584 87.2392 167.2C87.1432 166.792 87.0952 166.336 87.0952 165.832C87.0952 165.592 87.0952 165.364 87.0952 165.148C87.1192 164.932 87.1432 164.728 87.1672 164.536Z" fill="white"/>
<path d="M105.282 169.36C103.626 169.36 102.246 169.132 101.142 168.676C100.062 168.196 99.1975 167.548 98.5495 166.732C97.9015 165.916 97.4455 164.968 97.1815 163.888C96.9175 162.784 96.7855 161.608 96.7855 160.36C96.7855 158.92 96.9535 157.516 97.2895 156.148C97.6495 154.756 98.2495 153.52 99.0895 152.44C99.9295 151.36 101.034 150.496 102.402 149.848C103.794 149.176 105.522 148.84 107.586 148.84C110.61 148.84 112.77 149.584 114.066 151.072C115.386 152.536 116.046 154.6 116.046 157.264C116.046 158.008 115.986 158.836 115.866 159.748C115.77 160.636 115.566 161.524 115.254 162.412C114.966 163.3 114.558 164.164 114.03 165.004C113.526 165.844 112.878 166.588 112.086 167.236C111.294 167.884 110.334 168.4 109.206 168.784C108.102 169.168 106.794 169.36 105.282 169.36ZM106.974 153.628C106.062 153.628 105.33 153.868 104.778 154.348C104.25 154.804 103.842 155.368 103.554 156.04C103.29 156.688 103.11 157.384 103.014 158.128C102.942 158.848 102.906 159.46 102.906 159.964C102.906 161.548 103.158 162.712 103.662 163.456C104.166 164.2 104.886 164.572 105.822 164.572C106.662 164.572 107.346 164.308 107.874 163.78C108.426 163.252 108.846 162.616 109.134 161.872C109.446 161.128 109.65 160.348 109.746 159.532C109.866 158.716 109.926 158.032 109.926 157.48C109.926 156.28 109.698 155.344 109.242 154.672C108.81 153.976 108.054 153.628 106.974 153.628Z" fill="white"/>
<path d="M131.289 148.84C133.545 148.84 135.237 149.536 136.365 150.928C137.517 152.32 138.093 154.516 138.093 157.516C138.093 159.388 137.877 161.056 137.445 162.52C137.013 163.984 136.413 165.232 135.645 166.264C134.877 167.272 133.977 168.04 132.945 168.568C131.913 169.096 130.797 169.36 129.597 169.36C128.325 169.36 127.329 169.084 126.609 168.532C125.889 167.98 125.325 167.2 124.917 166.192C124.845 167.056 124.785 167.716 124.737 168.172C124.689 168.628 124.653 168.988 124.629 169.252C124.605 169.54 124.581 169.792 124.557 170.008C124.557 170.224 124.533 170.512 124.485 170.872C124.461 171.232 124.425 171.724 124.377 172.348C124.329 172.972 124.257 173.836 124.161 174.94C124.137 175.228 124.077 175.42 123.981 175.516C123.885 175.612 123.681 175.66 123.369 175.66H122.073C121.329 175.66 120.717 175.576 120.237 175.408C119.781 175.264 119.409 175.048 119.121 174.76C118.857 174.472 118.665 174.112 118.545 173.68C118.449 173.272 118.401 172.792 118.401 172.24C118.401 172 118.437 171.352 118.509 170.296C118.581 169.24 118.665 167.98 118.761 166.516C118.881 165.028 119.001 163.432 119.121 161.728C119.265 160.024 119.397 158.404 119.517 156.868C119.637 155.308 119.733 153.928 119.805 152.728C119.901 151.528 119.973 150.7 120.021 150.244C120.045 149.716 120.105 149.404 120.201 149.308C120.273 149.236 120.465 149.2 120.777 149.2H122.181C123.477 149.2 124.413 149.476 124.989 150.028C125.589 150.556 125.889 151.192 125.889 151.936C126.441 150.832 127.149 150.04 128.013 149.56C128.901 149.08 129.993 148.84 131.289 148.84ZM128.661 153.628C127.437 153.628 126.537 154.156 125.961 155.212C125.385 156.268 125.097 157.708 125.097 159.532C125.097 160.156 125.133 160.768 125.205 161.368C125.301 161.968 125.457 162.508 125.673 162.988C125.889 163.468 126.177 163.852 126.537 164.14C126.921 164.428 127.401 164.572 127.977 164.572C129.009 164.572 129.873 164.068 130.569 163.06C131.265 162.052 131.613 160.468 131.613 158.308C131.613 157.708 131.565 157.132 131.469 156.58C131.397 156.004 131.253 155.5 131.037 155.068C130.821 154.636 130.521 154.288 130.137 154.024C129.753 153.76 129.261 153.628 128.661 153.628Z" fill="white"/>
</svg>
