<?xml version="1.0" encoding="UTF-8" standalone="no"?>
<!DOCTYPE svg PUBLIC "-//W3C//DTD SVG 1.1//EN" "http://www.w3.org/Graphics/SVG/1.1/DTD/svg11.dtd">
<svg width="100%" height="100%" viewBox="0 0 32 32" version="1.1" xmlns="http://www.w3.org/2000/svg" xmlns:xlink="http://www.w3.org/1999/xlink" xml:space="preserve" xmlns:serif="http://www.serif.com/" style="fill-rule:evenodd;clip-rule:evenodd;stroke-linejoin:round;stroke-miterlimit:2;">
    <g transform="matrix(0.288241,0,0,0.2845,16,16)">
        <g id="splash-screen-icon.svg" transform="matrix(1,0,0,1,-52,-52)">
            <g id="Icon">
                <path id="Vector" d="M36.764,21.328C36.764,12.919 43.59,6.094 51.999,6.094C60.408,6.094 67.233,12.919 67.233,21.328L67.233,30.672L73.327,30.672L73.327,21.328C73.327,9.568 63.76,0 51.999,0C40.238,0 30.67,9.568 30.67,21.328L30.67,30.672L36.764,30.672L36.764,21.328Z" style="fill:rgb(54,79,212);fill-rule:nonzero;"/>
                <path id="Union" d="M9.342,104C8.428,104 7.575,103.573 7.027,102.903C6.418,102.233 6.173,101.319 6.356,100.405L18.544,33.17C18.788,31.707 20.067,30.672 21.53,30.672L30.67,30.672L30.67,42.859L27.623,42.859C25.917,42.859 24.577,44.2 24.577,45.906C24.577,47.612 25.917,48.953 27.623,48.953L39.811,48.953C41.518,48.953 42.858,47.612 42.858,45.906C42.858,44.2 41.518,42.859 39.811,42.859L36.764,42.859L36.764,30.672L67.233,30.672L67.233,42.859L64.186,42.859C62.479,42.859 61.139,44.2 61.139,45.906C61.139,47.612 62.479,48.953 64.186,48.953L76.373,48.953C78.08,48.953 79.42,47.612 79.42,45.906C79.42,44.2 78.08,42.859 76.373,42.859L73.327,42.859L73.327,30.672L82.467,30.672C83.93,30.672 85.209,31.707 85.453,33.17L97.641,100.405C97.824,101.319 97.579,102.233 96.971,102.903C96.422,103.573 95.569,104 94.655,104L9.342,104Z" style="fill:rgb(54,79,212);"/>
                <path id="e" d="M52.6,87.5C51.133,87.5 49.667,87.317 48.2,86.95C46.767,86.583 45.467,85.95 44.3,85.05C43.167,84.15 42.233,82.95 41.5,81.45C40.767,79.95 40.4,78.067 40.4,75.8C40.4,74.967 40.467,73.967 40.6,72.8C40.733,71.633 40.983,70.433 41.35,69.2C41.75,67.967 42.283,66.75 42.95,65.55C43.65,64.317 44.55,63.217 45.65,62.25C46.75,61.283 48.083,60.5 49.65,59.9C51.217,59.3 53.083,59 55.25,59C56.983,59 58.45,59.2 59.65,59.6C60.85,60 61.817,60.55 62.55,61.25C63.283,61.917 63.817,62.7 64.15,63.6C64.483,64.5 64.65,65.467 64.65,66.5C64.65,68.033 64.333,69.333 63.7,70.4C63.1,71.467 62.3,72.367 61.3,73.1C60.333,73.8 59.25,74.35 58.05,74.75C56.85,75.15 55.667,75.467 54.5,75.7C53.333,75.9 52.25,76.033 51.25,76.1C50.283,76.133 49.533,76.15 49,76.15C49,76.783 49.083,77.417 49.25,78.05C49.45,78.65 49.733,79.183 50.1,79.65C50.467,80.117 50.95,80.5 51.55,80.8C52.15,81.1 52.883,81.25 53.75,81.25C54.617,81.25 55.283,81.117 55.75,80.85C56.25,80.55 56.65,80.233 56.95,79.9C57.25,79.533 57.5,79.217 57.7,78.95C57.933,78.65 58.233,78.5 58.6,78.5C58.767,78.5 59.05,78.55 59.45,78.65C59.883,78.717 60.317,78.883 60.75,79.15C61.183,79.417 61.567,79.783 61.9,80.25C62.233,80.717 62.4,81.317 62.4,82.05C62.4,83.017 62.1,83.85 61.5,84.55C60.9,85.25 60.117,85.817 59.15,86.25C58.217,86.683 57.167,87 56,87.2C54.833,87.4 53.7,87.5 52.6,87.5ZM53.55,65.65C52.817,65.65 52.183,65.867 51.65,66.3C51.15,66.7 50.717,67.217 50.35,67.85C50.017,68.483 49.75,69.183 49.55,69.95C49.383,70.717 49.25,71.45 49.15,72.15C51.217,72.117 52.883,71.767 54.15,71.1C55.45,70.433 56.1,69.483 56.1,68.25C56.1,67.583 55.883,66.983 55.45,66.45C55.05,65.917 54.417,65.65 53.55,65.65Z" style="fill:white;fill-rule:nonzero;"/>
            </g>
        </g>
        <g id="splash-screen-icon.svg1" serif:id="splash-screen-icon.svg">
        </g>
    </g>
</svg>
